<svg width="150" height="51" viewBox="0 0 150 51" fill="none" xmlns="http://www.w3.org/2000/svg">
<path d="M51.3334 32.0663C50.4408 32.1041 49.55 31.958 48.7162 31.637C47.8825 31.3161 47.1236 30.8271 46.4868 30.2005C45.8571 29.534 45.3687 28.7469 45.0511 27.8866C44.7335 27.0264 44.5933 26.1108 44.6387 25.1949C44.5897 24.279 44.7246 23.3625 45.0356 22.4997C45.3466 21.6368 45.8274 20.845 46.4495 20.171C47.0926 19.5435 47.8583 19.0555 48.6987 18.7376C49.5391 18.4197 50.436 18.2788 51.3334 18.3235C52.8455 18.2779 54.3303 18.7324 55.5577 19.6167C56.1474 20.0572 56.6407 20.6138 57.0072 21.2522C57.3738 21.8905 57.6058 22.5971 57.6891 23.3285H54.4648C54.3004 22.6461 53.9036 22.0422 53.3425 21.6205C52.7557 21.2082 52.0509 20.9976 51.3341 21.0204C50.8613 20.9936 50.3889 21.0783 49.9548 21.2677C49.5208 21.4571 49.1374 21.7458 48.8355 22.1107C48.1984 23.0079 47.8888 24.0967 47.9586 25.1949C47.8887 26.2933 48.1983 27.3824 48.8355 28.2798C49.1373 28.6448 49.5207 28.9336 49.9547 29.123C50.3888 29.3124 50.8613 29.397 51.3341 29.3701C52.0989 29.3919 52.8469 29.1433 53.4465 28.6679C54.0404 28.1724 54.4301 27.4748 54.5407 26.7092H57.7271C57.6685 27.4727 57.4563 28.2165 57.1031 28.8958C56.7498 29.5752 56.2629 30.1761 55.6715 30.6626C54.4313 31.618 52.8983 32.114 51.3334 32.0663Z" fill="#262262"/>
<path d="M63.2994 32.0672C62.6434 32.0967 61.9883 31.9926 61.3738 31.7613C60.7592 31.5301 60.1981 31.1764 59.7243 30.7217C59.2715 30.2494 58.9191 29.6902 58.6884 29.0779C58.4577 28.4655 58.3535 27.8128 58.3821 27.1591C58.3523 26.5024 58.4559 25.8465 58.6865 25.2309C58.9172 24.6153 59.2702 24.0529 59.7243 23.5775C60.1996 23.1262 60.7615 22.776 61.3759 22.548C61.9904 22.32 62.6447 22.219 63.2994 22.251C63.9539 22.2187 64.6082 22.3197 65.2226 22.5477C65.837 22.7757 66.3987 23.126 66.8738 23.5775C67.3247 24.0543 67.6745 24.6174 67.9021 25.2329C68.1297 25.8484 68.2305 26.5036 68.1983 27.1591C68.2294 27.8118 68.1281 28.464 67.9004 29.0765C67.6728 29.689 67.3236 30.2491 66.8738 30.7231C66.4001 31.1775 65.839 31.531 65.2245 31.762C64.6101 31.9931 63.9551 32.0969 63.2994 32.0672ZM63.2994 24.5225C63.0102 24.5057 62.7212 24.5581 62.4563 24.6752C62.1914 24.7923 61.9581 24.9707 61.7759 25.1959C61.3877 25.7739 61.2022 26.4644 61.2484 27.1591C61.2024 27.8538 61.3879 28.5442 61.7759 29.1224C61.9583 29.3472 62.1916 29.5254 62.4565 29.6423C62.7214 29.7591 63.0103 29.8113 63.2994 29.7944C63.5855 29.8097 63.8713 29.7567 64.1329 29.6398C64.3946 29.523 64.6248 29.3456 64.8045 29.1224C65.1906 28.5435 65.3747 27.8533 65.328 27.1591C65.3749 26.4649 65.1908 25.7746 64.8045 25.1959C64.625 24.9723 64.3949 24.7947 64.1332 24.6776C63.8715 24.5605 63.5857 24.5073 63.2994 24.5225Z" fill="#262262"/>
<path d="M69.5068 32.0668H72.1245V18.9785H69.5068V32.0668Z" fill="#262262"/>
<path d="M78.3506 32.0663C77.6947 32.0957 77.0396 31.9916 76.425 31.7604C75.8105 31.5291 75.2493 31.1754 74.7756 30.7208C74.3227 30.2484 73.9704 29.6892 73.7397 29.0769C73.509 28.4646 73.4048 27.8118 73.4333 27.1581C73.4036 26.5014 73.5071 25.8455 73.7378 25.2299C73.9685 24.6143 74.3215 24.0519 74.7756 23.5765C75.2509 23.1253 75.8127 22.775 76.4272 22.5471C77.0417 22.3191 77.696 22.218 78.3506 22.25C79.0052 22.2178 79.6595 22.3187 80.2739 22.5467C80.8883 22.7747 81.45 23.1251 81.925 23.5765C82.3759 24.0534 82.7256 24.6165 82.9532 25.232C83.1808 25.8475 83.2816 26.5027 83.2496 27.1581C83.2807 27.8108 83.1793 28.463 82.9517 29.0755C82.7241 29.688 82.3748 30.2481 81.925 30.7221C81.4513 31.1765 80.8902 31.53 80.2758 31.7611C79.6614 31.9921 79.0064 32.0959 78.3506 32.0663ZM78.3506 24.5215C78.0615 24.5047 77.7725 24.5571 77.5076 24.6742C77.2426 24.7913 77.0094 24.9698 76.8271 25.1949C76.439 25.7729 76.2535 26.4634 76.2997 27.1581C76.2537 27.8529 76.4392 28.5432 76.8271 29.1214C77.0096 29.3462 77.2429 29.5244 77.5078 29.6413C77.7727 29.7581 78.0616 29.8103 78.3506 29.7935C78.6368 29.8087 78.9225 29.7557 79.1842 29.6388C79.4459 29.522 79.6761 29.3446 79.8558 29.1214C80.2419 28.5425 80.4259 27.8524 80.3793 27.1581C80.4261 26.4639 80.2421 25.7736 79.8558 25.1949C79.6763 24.9713 79.4461 24.7937 79.1844 24.6766C78.9227 24.5595 78.6369 24.5064 78.3506 24.5215Z" fill="#262262"/>
<path d="M89.8464 22.2496C89.8942 22.2496 90.0938 22.262 90.4478 22.2876V24.9471H89.7404C88.1262 24.9471 87.3191 25.8212 87.3191 27.5694V32.0659H84.5581V22.3995H87.2464V24.1972C87.3831 23.6194 87.7183 23.108 88.1934 22.7521C88.6686 22.3962 89.2536 22.2183 89.8464 22.2496Z" fill="#262262"/>
<path d="M100.415 32.0663C99.5222 32.1041 98.6314 31.958 97.7977 31.637C96.9639 31.3161 96.2051 30.8271 95.5682 30.2005C94.9385 29.534 94.4502 28.7469 94.1326 27.8866C93.815 27.0264 93.6747 26.1108 93.7202 25.1949C93.6711 24.279 93.806 23.3625 94.117 22.4997C94.4281 21.6368 94.9088 20.845 95.5309 20.171C96.174 19.5435 96.9397 19.0555 97.7801 18.7376C98.6205 18.4197 99.5175 18.2788 100.415 18.3235C101.927 18.2779 103.412 18.7324 104.639 19.6167C105.229 20.0572 105.722 20.6138 106.089 21.2522C106.455 21.8905 106.687 22.5971 106.771 23.3285H103.546C103.382 22.6461 102.985 22.0421 102.424 21.6205C101.837 21.2082 101.132 20.9976 100.415 21.0204C99.9427 20.9936 99.4703 21.0783 99.0363 21.2677C98.6023 21.4571 98.2188 21.7458 97.9169 22.1107C97.2796 23.0078 96.9698 24.0966 97.0394 25.1949C96.9697 26.2934 97.2795 27.3825 97.9169 28.2798C98.2187 28.6448 98.6021 28.9336 99.0362 29.123C99.4702 29.3124 99.9427 29.397 100.415 29.3701C101.18 29.3919 101.928 29.1433 102.528 28.6679C103.122 28.1724 103.512 27.4748 103.622 26.7092H106.808C106.75 27.4727 106.538 28.2164 106.184 28.8958C105.831 29.5751 105.344 30.1761 104.753 30.6626C103.513 31.618 101.98 32.114 100.415 32.0663Z" fill="#262262"/>
<path d="M112.38 32.0663C111.724 32.0957 111.069 31.9916 110.455 31.7604C109.84 31.5291 109.279 31.1754 108.805 30.7208C108.352 30.2484 108 29.6892 107.769 29.0769C107.539 28.4646 107.434 27.8118 107.463 27.1581C107.433 26.5014 107.537 25.8455 107.767 25.2299C107.998 24.6143 108.351 24.0519 108.805 23.5765C109.28 23.1253 109.842 22.775 110.457 22.5471C111.071 22.3191 111.726 22.218 112.38 22.25C113.035 22.2178 113.689 22.3187 114.303 22.5467C114.918 22.7747 115.48 23.1251 115.955 23.5765C116.405 24.0533 116.755 24.6164 116.983 25.2319C117.211 25.8475 117.311 26.5027 117.279 27.1581C117.31 27.8108 117.209 28.463 116.981 29.0755C116.754 29.688 116.404 30.2481 115.955 30.7221C115.481 31.1765 114.92 31.53 114.305 31.7611C113.691 31.9921 113.036 32.0959 112.38 32.0663ZM112.38 24.5215C112.091 24.5047 111.802 24.5571 111.537 24.6742C111.272 24.7913 111.039 24.9698 110.857 25.1949C110.469 25.7729 110.283 26.4634 110.329 27.1581C110.283 27.8529 110.469 28.5432 110.857 29.1214C111.039 29.3462 111.272 29.5244 111.537 29.6413C111.802 29.7581 112.091 29.8103 112.38 29.7935C112.666 29.8087 112.952 29.7557 113.214 29.6388C113.475 29.522 113.706 29.3446 113.885 29.1214C114.271 28.5425 114.455 27.8524 114.409 27.1581C114.456 26.4639 114.272 25.7736 113.885 25.1949C113.706 24.9713 113.476 24.7937 113.214 24.6766C112.952 24.5595 112.666 24.5064 112.38 24.5215Z" fill="#262262"/>
<path d="M122.086 32.067C121.508 32.09 120.933 31.9765 120.407 31.7358C119.881 31.4951 119.419 31.134 119.059 30.6816C118.262 29.603 117.864 28.281 117.934 26.9416C117.864 25.6024 118.262 24.2806 119.059 23.2022C119.419 22.7498 119.881 22.3886 120.407 22.148C120.933 21.9073 121.508 21.7938 122.086 21.8168C122.631 21.7946 123.173 21.912 123.66 22.1578C124.148 22.4037 124.564 22.77 124.871 23.2219V18.3242H127.75V31.8392H124.945V30.5664C124.646 31.0488 124.223 31.4423 123.72 31.7062C123.217 31.97 122.653 32.0946 122.086 32.067ZM122.879 24.1891C122.589 24.1778 122.3 24.2386 122.039 24.3662C121.778 24.4938 121.553 24.6841 121.384 24.9201C120.99 25.546 120.803 26.2799 120.849 27.0181C120.849 28.7942 121.532 29.6947 122.877 29.6947C124.237 29.6947 124.926 28.7687 124.926 26.9416C124.926 25.1144 124.238 24.1891 122.879 24.1891Z" fill="#262262"/>
<path d="M134.003 32.0666C133.347 32.0935 132.692 31.9882 132.077 31.757C131.462 31.5258 130.9 31.1733 130.424 30.7205C129.965 30.2516 129.607 29.6936 129.372 29.081C129.137 28.4683 129.031 27.814 129.059 27.1585C129.028 26.504 129.131 25.8502 129.363 25.2373C129.595 24.6245 129.949 24.0656 130.405 23.5952C130.876 23.14 131.435 22.7859 132.047 22.5546C132.66 22.3233 133.313 22.2198 133.967 22.2504C134.628 22.2243 135.287 22.3351 135.903 22.5759C136.519 22.8166 137.078 23.1822 137.546 23.6495C138.464 24.6891 138.941 26.0455 138.875 27.4307V27.9948H131.826C131.884 28.5549 132.14 29.0762 132.546 29.4659C132.951 29.8134 133.471 29.9954 134.004 29.9757C134.393 30.0129 134.784 29.9321 135.126 29.7439C135.468 29.5558 135.746 29.269 135.923 28.9208H138.654C138.411 29.865 137.826 30.6849 137.011 31.2204C136.117 31.7992 135.068 32.0942 134.003 32.0666ZM133.93 24.3445C133.671 24.3265 133.411 24.3603 133.166 24.444C132.92 24.5276 132.693 24.6595 132.499 24.8317C132.305 25.004 132.147 25.2132 132.035 25.4472C131.922 25.6812 131.858 25.9353 131.845 26.1945H136.052C135.983 25.6727 135.735 25.191 135.351 24.8314C134.955 24.497 134.448 24.3233 133.93 24.3445Z" fill="#262262"/>
<path d="M143.681 32.067C143.103 32.09 142.528 31.9766 142.002 31.7359C141.477 31.4952 141.015 31.134 140.655 30.6816C139.857 29.6032 139.459 28.2811 139.529 26.9416C139.46 25.6023 139.858 24.2804 140.655 23.2022C141.015 22.7498 141.477 22.3886 142.002 22.1479C142.528 21.9072 143.103 21.7938 143.681 21.8168C144.226 21.7946 144.769 21.912 145.256 22.1578C145.743 22.4037 146.16 22.77 146.466 23.2219V18.3242H149.346V31.8392H146.541V30.5664C146.241 31.0488 145.818 31.4423 145.315 31.7062C144.812 31.97 144.248 32.0946 143.681 32.067ZM144.474 24.1891C144.184 24.1778 143.896 24.2386 143.635 24.3662C143.374 24.4938 143.149 24.6841 142.979 24.9201C142.586 25.5461 142.399 26.28 142.445 27.0181C142.445 28.7942 143.127 29.6947 144.473 29.6947C145.833 29.6947 146.522 28.7687 146.522 26.9416C146.522 25.1144 145.833 24.1891 144.474 24.1891Z" fill="#262262"/>
<path d="M74.1198 35.9922V40.115H76.7054V41.2275H72.7789V35.9922H74.1198Z" fill="#262262"/>
<path d="M87.2606 41.2275H85.8673L87.9785 35.9922H89.5975L91.7571 41.2275H90.3173L89.9757 40.3159H87.591L87.2606 41.2275ZM88.7755 37.0589C88.5072 37.8102 88.3338 38.2925 88.3004 38.3821L87.9732 39.2787H89.589L89.2618 38.3821C89.1551 38.1112 88.9921 37.6662 88.7755 37.0589Z" fill="#262262"/>
<path d="M104.859 41.2279H102.228V35.9926H104.78C105.259 35.9587 105.736 36.0884 106.132 36.3604C106.279 36.4748 106.397 36.6223 106.477 36.7909C106.557 36.9595 106.595 37.1445 106.59 37.3309C106.6 37.5681 106.537 37.8026 106.408 38.002C106.279 38.2013 106.091 38.3556 105.87 38.4434C106.146 38.5351 106.387 38.7111 106.557 38.9466C106.72 39.1666 106.808 39.4325 106.809 39.7058C106.819 39.9184 106.78 40.1305 106.694 40.3252C106.608 40.5199 106.477 40.6919 106.313 40.8274C105.888 41.1221 105.375 41.2633 104.859 41.2279ZM103.506 39.0435V40.2358H104.78C104.967 40.2467 105.152 40.1919 105.304 40.0807C105.366 40.0263 105.415 39.9582 105.447 39.8817C105.479 39.8052 105.494 39.7224 105.489 39.6397C105.489 39.247 105.25 39.0435 104.779 39.0435H103.506ZM103.506 36.9847V38.1024H104.7C104.866 38.1134 105.031 38.0582 105.158 37.9486C105.213 37.894 105.255 37.8284 105.283 37.7561C105.311 37.6839 105.324 37.6066 105.32 37.5292C105.323 37.455 105.31 37.3811 105.282 37.3124C105.254 37.2437 105.212 37.1819 105.158 37.1313C105.029 37.0267 104.865 36.9741 104.7 36.984L103.506 36.9847Z" fill="#262262"/>
<path d="M118.953 41.2284C118.336 41.2679 117.726 41.0818 117.237 40.7048C117.033 40.5227 116.873 40.2976 116.767 40.0459C116.661 39.7942 116.613 39.5222 116.625 39.2494H117.849C117.835 39.3847 117.854 39.5212 117.904 39.6477C117.954 39.7742 118.033 39.8871 118.135 39.9771C118.394 40.1329 118.696 40.2043 118.997 40.1813C119.597 40.1813 119.897 39.9656 119.897 39.5341C119.903 39.4526 119.888 39.3709 119.853 39.2968C119.819 39.2226 119.766 39.1584 119.701 39.11C119.465 38.9818 119.209 38.8976 118.943 38.8613L118.512 38.7743C117.329 38.5631 116.737 37.9746 116.737 37.0087C116.727 36.7776 116.771 36.5474 116.866 36.3361C116.96 36.1247 117.101 35.9379 117.279 35.7902C117.72 35.4639 118.263 35.304 118.811 35.3386C119.39 35.2993 119.964 35.4677 120.43 35.8137C120.621 35.9848 120.773 36.1949 120.876 36.4299C120.979 36.6648 121.03 36.9191 121.026 37.1756H119.831C119.834 37.0627 119.813 36.9505 119.768 36.8467C119.724 36.7429 119.657 36.65 119.574 36.5742C119.355 36.4309 119.094 36.3646 118.833 36.3857C118.291 36.3857 118.02 36.5757 118.021 36.9557C118.016 37.0387 118.031 37.1216 118.065 37.1974C118.1 37.2732 118.152 37.3396 118.217 37.3909C118.432 37.523 118.673 37.6092 118.923 37.6441L119.371 37.7312C119.882 37.7948 120.366 37.9987 120.769 38.3201C120.918 38.4662 121.034 38.6422 121.109 38.8365C121.184 39.0308 121.217 39.239 121.206 39.447C121.22 39.6994 121.173 39.9514 121.069 40.1817C120.965 40.4121 120.807 40.614 120.609 40.7703C120.123 41.1021 119.54 41.2632 118.953 41.2284Z" fill="#262262"/>
<path d="M35.9353 39.3519C32.8087 41.8975 28.8997 43.2866 24.8678 43.2849C20.1568 43.2849 15.6388 41.4135 12.3076 38.0823C8.97643 34.7511 7.10499 30.2331 7.10499 25.5221C7.10499 20.8111 8.97643 16.2931 12.3076 12.9619C15.6388 9.63073 20.1568 7.75929 24.8678 7.75929C28.8997 7.75721 32.8089 9.14639 35.9353 11.6923L41.3669 7.01718C36.8485 2.92044 30.967 0.652217 24.8678 0.654298C18.2725 0.654298 11.9472 3.27429 7.28361 7.93791C2.61999 12.6015 0 18.9268 0 25.5221C0 32.1175 2.61999 38.4427 7.28361 43.1063C11.9472 47.7699 18.2725 50.3899 24.8678 50.3899C30.9671 50.3919 36.8487 48.1235 41.3669 44.0264L35.9353 39.3519Z" fill="#262262"/>
<path d="M15.884 37.9564L21.08 32.8755C19.7013 32.2016 18.5379 31.1564 17.7209 29.8573C16.9038 28.5583 16.4655 27.057 16.4553 25.5225H9.30054C9.30982 27.973 9.91374 30.3847 11.0604 32.5505C12.2071 34.7162 13.8624 36.5713 15.884 37.9564Z" fill="#F6931D"/>
<path d="M9.30054 24.8675H16.4546C16.4643 23.3327 16.9024 21.8311 17.7196 20.5319C18.5369 19.2328 19.7007 18.1877 21.08 17.5145L15.8833 12.4336C13.8618 13.8187 12.2067 15.6738 11.0601 17.8396C9.91349 20.0053 9.30969 22.417 9.30054 24.8675" fill="#61C7CF"/>
<path d="M15.8447 12.6157L21.0055 17.6685C22.1727 17.0834 23.4595 16.7765 24.7651 16.7718C26.0707 16.767 27.3598 17.0645 28.5312 17.641L34.1684 12.9154C31.5294 10.9548 28.3419 9.8713 25.0548 9.81753C21.7676 9.76376 18.5464 10.7424 15.8447 12.6157" fill="#1C75BB"/>
<path d="M24.7971 40.5737C28.1738 40.5801 31.4617 39.4925 34.1684 37.4737L28.5299 32.7475C27.3693 33.3185 26.0932 33.6158 24.7998 33.6166C23.4828 33.6169 22.1838 33.3102 21.0061 32.7207L15.8447 37.7728C18.4717 39.601 21.5966 40.5787 24.7971 40.5737Z" fill="#EB008B"/>
</svg>
